<svg width="20" height="20" viewBox="0 0 20 20" fill="none" xmlns="http://www.w3.org/2000/svg">
<path d="M15.103 7.30398C15.2146 7.45619 15.2648 7.6449 15.2434 7.83246C15.222 8.02001 15.1307 8.19261 14.9877 8.31582C14.8447 8.43902 14.6605 8.50376 14.4718 8.49711C14.2832 8.49047 14.104 8.41293 13.97 8.27998L9.99997 4.30998L6.02997 8.27998L5.94597 8.35298C5.79376 8.46463 5.60504 8.51478 5.41749 8.49341C5.22993 8.47205 5.05733 8.38075 4.93413 8.23773C4.81092 8.09471 4.74618 7.91049 4.75283 7.72184C4.75947 7.53319 4.83701 7.35398 4.96997 7.21998L9.46997 2.71998L9.55397 2.64698C9.69844 2.54026 9.87641 2.48894 10.0555 2.50233C10.2346 2.51573 10.403 2.59296 10.53 2.71998L15.03 7.21998L15.103 7.30398ZM4.89697 12.696C4.78532 12.5438 4.73517 12.3551 4.75653 12.1675C4.77789 11.9799 4.86919 11.8073 5.01221 11.6841C5.15524 11.5609 5.33945 11.4962 5.52811 11.5028C5.71676 11.5095 5.89597 11.587 6.02997 11.72L9.99997 15.69L13.97 11.72L14.054 11.647C14.2062 11.5353 14.3949 11.4852 14.5824 11.5065C14.77 11.5279 14.9426 11.6192 15.0658 11.7622C15.189 11.9052 15.2537 12.0895 15.2471 12.2781C15.2405 12.4668 15.1629 12.646 15.03 12.78L10.53 17.28L10.446 17.353C10.3015 17.4597 10.1235 17.511 9.94442 17.4976C9.76531 17.4842 9.59696 17.407 9.46997 17.28L4.96997 12.78L4.89697 12.696Z" fill="#2F2F2F"/>
</svg>
