<svg width="14" height="10" viewBox="0 0 14 10" fill="none" xmlns="http://www.w3.org/2000/svg">
<path fill-rule="evenodd" clip-rule="evenodd" d="M-1.96729e-07 4.99998C-2.02525e-07 4.86737 0.0526782 4.74019 0.146446 4.64643C0.240215 4.55266 0.367392 4.49998 0.5 4.49998L12.293 4.49998L9.146 1.35398C9.05211 1.26009 8.99937 1.13275 8.99937 0.999979C8.99937 0.867203 9.05211 0.739865 9.146 0.645979C9.23989 0.552092 9.36722 0.499347 9.5 0.499347C9.63277 0.499347 9.76011 0.552092 9.854 0.645978L13.854 4.64598C13.9006 4.69242 13.9375 4.7476 13.9627 4.80835C13.9879 4.86909 14.0009 4.93421 14.0009 4.99998C14.0009 5.06575 13.9879 5.13087 13.9627 5.19161C13.9375 5.25236 13.9006 5.30753 13.854 5.35398L9.854 9.35398C9.76011 9.44787 9.63278 9.50061 9.5 9.50061C9.36722 9.50061 9.23989 9.44787 9.146 9.35398C9.05211 9.26009 8.99937 9.13275 8.99937 8.99998C8.99937 8.8672 9.05211 8.73986 9.146 8.64598L12.293 5.49998L0.5 5.49998C0.367392 5.49998 0.240215 5.4473 0.146446 5.35353C0.0526782 5.25976 -1.90932e-07 5.13259 -1.96729e-07 4.99998Z" fill="#F31FC5"/>
</svg>
