<svg viewBox="0 0 512.001 512.001"><path d="M511.266 197.258c-1.764-5.432-6.458-9.389-12.108-10.209l-158.722-23.066-70.984-143.827c-2.527-5.121-7.741-8.361-13.451-8.361-5.709 0-10.924 3.24-13.451 8.361l-70.988 143.826-158.719 23.067c-5.649.82-10.345 4.777-12.108 10.207-1.765 5.432-.293 11.393 3.795 15.377l114.848 111.955L92.27 482.67c-.965 5.629 1.349 11.315 5.968 14.672 4.619 3.355 10.741 3.799 15.797 1.141L256 423.845l141.961 74.637c2.195 1.154 4.591 1.723 6.979 1.723 3.11 0 6.206-.965 8.818-2.863 4.619-3.357 6.933-9.045 5.968-14.672L392.61 324.588l114.86-111.955c4.089-3.985 5.561-9.946 3.796-15.375z" fill="#eee"/><path d="M511.266 197.258c-1.764-5.432-6.458-9.389-12.108-10.209l-158.722-23.066-70.984-143.827c-2.527-5.121-7.741-8.361-13.451-8.361v412.051l141.961 74.637c2.195 1.154 4.591 1.723 6.979 1.723 3.11 0 6.206-.965 8.818-2.863 4.619-3.357 6.933-9.045 5.968-14.672L392.61 324.588l114.86-111.955c4.089-3.985 5.561-9.946 3.796-15.375z" fill="#eee"/></svg>
